<svg xmlns="http://www.w3.org/2000/svg" xmlns:xlink="http://www.w3.org/1999/xlink" version="1.1" width="384.197" height="141.732" viewBox="0 0 384.197 141.732">
<defs>
<clipPath id="clip_1">
<path transform="matrix(1,0,0,-1,0,141.732)" d="M0 141.732H384.197V0H0Z"/>
</clipPath>
</defs>
<g id="layer_1" data-name="Livello 1">
<path transform="matrix(1,0,0,-1,0,141.732)" d="M0 0H384.197V141.732H0Z" fill="#231f20"/>
<g clip-path="url(#clip_1)">
<path transform="matrix(1,0,0,-1,75.8027,89.790699)" d="M0 0C0-.592-.484-1.076-1.077-1.076H-8.423C-9.015-1.076-9.5-.592-9.5 0V7.347C-9.5 7.938-9.015 8.424-8.423 8.424H-1.077C-.484 8.424 0 7.938 0 7.347ZM0-13.686C0-14.278-.484-14.763-1.077-14.763H-8.423C-9.015-14.763-9.5-14.278-9.5-13.686V-6.34C-9.5-5.747-9.015-5.263-8.423-5.263H-1.077C-.484-5.263 0-5.747 0-6.34ZM-13.168 0C-13.168-.592-13.652-1.076-14.245-1.076H-21.591C-22.184-1.076-22.668-.592-22.668 0V7.347C-22.668 7.938-22.184 8.424-21.591 8.424H-14.245C-13.652 8.424-13.168 7.938-13.168 7.347ZM-13.168-13.686C-13.168-14.278-13.652-14.763-14.245-14.763H-21.591C-22.184-14.763-22.668-14.278-22.668-13.686V-6.34C-22.668-5.747-22.184-5.263-21.591-5.263H-14.245C-13.652-5.263-13.168-5.747-13.168-6.34ZM-11.04 17.921C-20.595 27.222-29.809 17.921-29.809 17.921V-25.54H-22.824-21.1-.362C4.418-25.54 8.329-21.629 8.329-16.85V-.081 3.562 17.921C-1.143 27.586-11.04 17.921-11.04 17.921" fill="#ffffff"/>
<path transform="matrix(1,0,0,-1,45.9937,67.5739)" d="M0 0C0 0 10.104 7.822 19.069 .528 19.069 .528 27.967 7.08 38.138 .528L21.481 13.88C21.481 13.88 18.391 16.229 15.918 13.88 13.446 11.531 0 0 0 0" fill="#ffffff"/>
<path transform="matrix(1,0,0,-1,113.2163,53.21649)" d="M0 0C-.157 2.882-.947 5.674-1.547 8.482-1.998 10.589-3.14 12.554-3.958 14.534-4.862 16.725-5.737 18.91-7.071 20.884-9.631 24.673-12.799 28.007-16.578 30.588-20.458 33.238-24.347 34.567-28.899 35.601-31.031 36.085-33.29 36.239-35.575 36.258-35.575 36.258-35.574 36.261-35.574 36.261H-70.988-78.168V-5.78L-70.988 .566V27.455C-70.944 27.567-70.896 27.677-70.839 27.778-70.558 28.28-70.061 28.555-69.465 28.697H-65.424C-54.632 28.739-43.84 28.963-33.054 28.673-24.036 28.431-16.441 23.671-11.527 16.123-8.612 11.643-7.32 6.202-6.607 .979-6.202-1.986-6.33-4.536-6.838-7.492-7.073-8.854-7.271-10.099-7.782-11.38-8.271-12.605-8.554-13.218-7.765-14.372-6.468-16.267-4.492-18.359-3.213-15.521-2.211-13.299-1.563-10.888-1.026-8.518-.397-5.745 .155-2.855 0 0" fill="#ffffff"/>
<path transform="matrix(1,0,0,-1,35.0483,95.40599)" d="M0 0V-11.938-30.22H7.18V-30.189-24.414-11.938-9.147 6.346 11.225 24.628L0 18.283Z" fill="#ffffff"/>
<path transform="matrix(1,0,0,-1,109.6792,81.06999)" d="M0 0C-2.159 3.704-4.41 7.46-7.462 10.529-10.329 13.412-13.098 16.466-16.107 19.195-22.5 24.997-29.107 30.616-35.721 36.165-37.353 37.534-39.001 38.884-40.644 40.24-41.941 41.311-43.93 43.905-45.721 42.987-47.23 42.214-48.678 40.496-49.95 39.386-51.642 37.909-53.331 36.433-54.956 34.883-61.333 28.795-68.25 23.188-74.897 17.396-78.512 14.247-82.249 11.215-85.769 7.965-87.37 6.485-88.722 5.304-88.989 3.017-89.204 1.178-88.797-.75-88.573-2.574-75.374 7.854-63.208 19.625-50.476 30.614-49.102 31.8-47.546 33.647-45.854 34.358-43.885 35.185-42.334 33.497-40.922 32.337-37.711 29.7-34.537 27.029-31.265 24.467-24.944 19.521-18.765 13.807-13.244 7.979-10.573 5.157-7.344 1.984-5.594-1.517-4.766-3.175-3.925-5.154-3.539-6.975-3.155-8.782-2.613-10.974-2.74-12.816-3.314-21.166-6.331-27.964-12.86-33.376-15.628-35.67-19.688-37.504-23.192-38.278-27.319-39.19-31.868-38.735-36.07-38.748-43.647-38.771-51.224-38.752-58.801-38.751V-38.75H-63.686V-44.51L-39.96-44.409C-37.419-44.419-34.879-44.432-32.338-44.451-31.306-44.459-30.284-44.43-29.266-44.363H-29.263-29.264C-27.604-44.256-25.955-44.05-24.3-43.742-21.526-43.226-19.175-42.315-16.543-41.4-12.102-39.856-8.167-36.478-4.949-33.081-.953-28.865 1.229-23.303 2.67-17.727 4.104-12.179 2.887-4.956 0 0" fill="#ffffff"/>
<path transform="matrix(1,0,0,-1,136.3188,32.409898)" d="M0 0V-10.758H4.09C6.364-10.758 8.044-10.325 9.13-9.459 10.215-8.593 10.758-7.256 10.758-5.447 10.758-3.561 10.212-2.18 9.119-1.308 8.027-.437 6.273 0 3.857 0ZM-2.771 2.771H3.217C4.936 2.771 6.312 2.681 7.346 2.5 8.38 2.319 9.239 2.028 9.924 1.628 11.164 .878 12.117-.095 12.783-1.289 13.448-2.485 13.781-3.832 13.781-5.331 13.781-6.752 13.481-8.067 12.88-9.274 12.279-10.484 11.442-11.443 10.37-12.153 9.62-12.657 8.726-13.022 7.685-13.249 6.645-13.475 5.317-13.588 3.703-13.588H0V-25.45H-2.771Z" fill="#ffffff"/>
<path transform="matrix(1,0,0,-1,0,141.732)" d="M172.511 83.872H169.74V112.094H172.511Z" fill="#ffffff"/>
<path transform="matrix(1,0,0,-1,206.3584,57.860094)" d="M0 0H-12.716V28.222H-9.924V2.732H0Z" fill="#ffffff"/>
<path transform="matrix(1,0,0,-1,228.6719,42.295595)" d="M0 0H11.862V-2.791H0V-12.832H11.862V-15.564H-2.791V12.657H11.862V9.886H0Z" fill="#ffffff"/>
<path transform="matrix(1,0,0,-1,271.5312,44.330797)" d="M0 0H17.542C17.31-4.109 15.83-7.485 13.104-10.127 10.377-12.771 7.03-14.091 3.063-14.091-1.008-14.091-4.416-12.671-7.161-9.827-9.907-6.984-11.28-3.457-11.28 .756-11.28 2.733-10.906 4.606-10.156 6.377-9.407 8.147-8.309 9.744-6.861 11.165-5.466 12.547-3.922 13.574-2.229 14.247-.536 14.919 1.345 15.255 3.412 15.255 6.151 15.255 8.61 14.592 10.787 13.268 12.965 11.943 14.712 10.053 16.031 7.598H12.619C11.288 9.291 9.863 10.542 8.345 11.349 6.826 12.156 5.13 12.56 3.257 12.56 .014 12.56-2.729 11.4-4.972 9.081-7.214 6.761-8.334 3.973-8.334 .717-8.334-2.746-7.217-5.634-4.981-7.947-2.745-10.26 .014-11.416 3.295-11.416 5.88-11.416 8.196-10.59 10.244-8.936 12.293-7.281 13.627-5.137 14.247-2.5H0Z" fill="#ffffff"/>
<path transform="matrix(1,0,0,-1,318.6562,44.330797)" d="M0 0H17.542C17.309-4.109 15.83-7.485 13.103-10.127 10.376-12.771 7.029-14.091 3.063-14.091-1.008-14.091-4.417-12.671-7.162-9.827-9.908-6.984-11.281-3.457-11.281 .756-11.281 2.733-10.906 4.606-10.157 6.377-9.407 8.147-8.31 9.744-6.861 11.165-5.467 12.547-3.922 13.574-2.229 14.247-.537 14.919 1.345 15.255 3.411 15.255 6.151 15.255 8.609 14.592 10.787 13.268 12.964 11.943 14.712 10.053 16.03 7.598H12.618C11.287 9.291 9.863 10.542 8.344 11.349 6.826 12.156 5.13 12.56 3.256 12.56 .013 12.56-2.729 11.4-4.972 9.081-7.215 6.761-8.334 3.973-8.334 .717-8.334-2.746-7.218-5.634-4.981-7.947-2.745-10.26 .013-11.416 3.295-11.416 5.879-11.416 8.196-10.59 10.244-8.936 12.292-7.281 13.626-5.137 14.247-2.5H0Z" fill="#ffffff"/>
<path transform="matrix(1,0,0,-1,0,141.732)" d="M358.667 83.872H355.896V112.094H358.667Z" fill="#ffffff"/>
<path transform="matrix(1,0,0,-1,0,141.732)" d="M137.071 40.867H134.05V71.631H137.071Z" fill="#ffffff"/>
<path transform="matrix(1,0,0,-1,160.5879,81.2585)" d="M0 0C.944 1.339 2.117 2.357 3.519 3.054 4.92 3.751 6.488 4.1 8.22 4.1 11.375 4.1 13.671 3.152 15.108 1.258 16.544-.637 17.263-3.684 17.263-7.88V-19.606H14.411V-7.267C14.411-4.196 13.903-2.01 12.889-.707 11.875 .596 10.22 1.247 7.924 1.247 6.6 1.247 5.434 .976 4.427 .434 3.42-.108 2.621-.887 2.029-1.9 1.677-2.535 1.424-3.257 1.268-4.066 1.113-4.877 1.036-6.289 1.036-8.303V-19.606H-1.774V-6.591C-1.774-3.915-2.316-1.939-3.401-.665-4.486 .61-6.148 1.247-8.387 1.247-9.739 1.247-10.927 .976-11.948 .434-12.97-.108-13.776-.887-14.367-1.9-14.733-2.535-14.99-3.257-15.138-4.066-15.286-4.877-15.36-6.289-15.36-8.303V-19.606H-18.297V3.635H-15.36V.993C-14.473 2.022-13.427 2.797-12.222 3.317-11.018 3.839-9.655 4.1-8.134 4.1-6.373 4.1-4.768 3.73-3.317 2.991-1.866 2.251-.76 1.255 0 0" fill="#ffffff"/>
<path transform="matrix(1,0,0,-1,200.8818,81.2585)" d="M0 0C.944 1.339 2.116 2.357 3.518 3.054 4.919 3.751 6.486 4.1 8.22 4.1 11.374 4.1 13.671 3.152 15.107 1.258 16.544-.637 17.262-3.684 17.262-7.88V-19.606H14.41V-7.267C14.41-4.196 13.903-2.01 12.889-.707 11.875 .596 10.219 1.247 7.923 1.247 6.599 1.247 5.434 .976 4.427 .434 3.419-.108 2.62-.887 2.028-1.9 1.676-2.535 1.422-3.257 1.268-4.066 1.113-4.877 1.035-6.289 1.035-8.303V-19.606H-1.775V-6.591C-1.775-3.915-2.317-1.939-3.402-.665-4.487 .61-6.148 1.247-8.389 1.247-9.741 1.247-10.927 .976-11.948 .434-12.97-.108-13.776-.887-14.368-1.9-14.734-2.535-14.992-3.257-15.139-4.066-15.287-4.877-15.361-6.289-15.361-8.303V-19.606H-18.298V3.635H-15.361V.993C-14.473 2.022-13.427 2.797-12.223 3.317-11.019 3.839-9.656 4.1-8.135 4.1-6.374 4.1-4.768 3.73-3.317 2.991-1.867 2.251-.761 1.255 0 0" fill="#ffffff"/>
<path transform="matrix(1,0,0,-1,224.7783,89.2233)" d="M0 0C0-2.676 .853-4.92 2.558-6.729 4.261-8.54 6.382-9.445 8.917-9.445 11.41-9.445 13.502-8.54 15.192-6.729 16.882-4.92 17.729-2.662 17.729 .043 17.729 2.789 16.872 5.046 15.16 6.814 13.449 8.581 11.276 9.467 8.643 9.467 6.275 9.467 4.244 8.558 2.547 6.74 .85 4.923 0 2.677 0 0M-3.126-.042C-3.126 3.366-1.958 6.282 .381 8.705 2.719 11.128 5.487 12.34 8.685 12.34 12.051 12.34 14.921 11.149 17.295 8.769 19.668 6.388 20.854 3.55 20.854 .254 20.854-3.212 19.692-6.17 17.368-8.621 15.044-11.072 12.227-12.297 8.917-12.297 5.55-12.297 2.701-11.096 .371-8.694-1.961-6.294-3.126-3.409-3.126-.042" fill="#ffffff"/>
<path transform="matrix(1,0,0,-1,251.9932,89.476299)" d="M0 0C0-2.479 .877-4.638 2.631-6.477 4.384-8.314 6.402-9.234 8.684-9.234 11.177-9.234 13.301-8.312 15.055-6.466 16.808-4.621 17.686-2.339 17.686 .38 17.686 2.958 16.812 5.137 15.065 6.92 13.318 8.701 11.227 9.593 8.79 9.593 6.353 9.593 4.279 8.662 2.566 6.803 .855 4.944 0 2.676 0 0M0 19.375V9.677 7.944C1.254 9.45 2.627 10.564 4.12 11.282 5.613 12 7.282 12.359 9.128 12.359 12.396 12.359 15.159 11.184 17.421 8.831 19.682 6.479 20.812 3.619 20.812 .253 20.812-3.227 19.657-6.139 17.348-8.483 15.037-10.83 12.136-12.002 8.642-12.002 6.923-12.002 5.349-11.66 3.92-10.978 2.49-10.294 1.184-9.263 0-7.882V-11.389H-2.938V19.375Z" fill="#ffffff"/>
<path transform="matrix(1,0,0,-1,0,141.732)" d="M276.438 64.108H279.417V40.867006H276.438ZM279.418 66.835H276.439V71.631H279.418Z" fill="#ffffff"/>
<path transform="matrix(1,0,0,-1,0,141.732)" d="M284.278 71.631H287.25703V40.866998H284.278Z" fill="#ffffff"/>
<path transform="matrix(1,0,0,-1,0,141.732)" d="M292.117 64.108H295.096V40.867006H292.117ZM295.096 66.835H292.117V71.631H295.096Z" fill="#ffffff"/>
<path transform="matrix(1,0,0,-1,319.543,89.09639)" d="M0 0C0 2.465-.881 4.616-2.642 6.455-4.402 8.293-6.431 9.213-8.727 9.213-11.22 9.213-13.344 8.293-15.097 6.455-16.851 4.616-17.728 2.338-17.728-.38-17.728-2.972-16.854-5.16-15.108-6.941-13.361-8.723-11.262-9.614-8.811-9.614-6.444-9.614-4.385-8.673-2.631-6.793-.878-4.913 0-2.648 0 0M0-8.093C-.931-9.432-2.187-10.479-3.771-11.241-5.357-12.001-7.065-12.382-8.896-12.382-12.305-12.382-15.143-11.217-17.41-8.886-19.679-6.554-20.812-3.677-20.812-.253-20.812 3.226-19.653 6.135-17.337 8.473-15.021 10.812-12.122 11.979-8.642 11.979-6.854 11.979-5.212 11.617-3.72 10.892-2.227 10.167-.987 9.12 0 7.754V11.473H2.915V-11.769H0Z" fill="#ffffff"/>
<path transform="matrix(1,0,0,-1,330.1494,100.8649)" d="M0 0H-3.022V23.241H-.212V20.558C.521 21.587 1.32 22.341 2.187 22.819 3.053 23.298 4.063 23.551 5.219 23.579L5.239 20.347C3.366 20.178 2.024 19.618 1.215 18.667 .404 17.716 0 16.17 0 14.029Z" fill="#ffffff"/>
<path transform="matrix(1,0,0,-1,357.4902,87.59639)" d="M0 0C-.563 2.585-1.599 4.53-3.106 5.837-4.613 7.144-6.579 7.797-9 7.797-11.254 7.797-13.164 7.094-14.727 5.69-16.29 4.286-17.248 2.389-17.6 0ZM3.296-2.6H-17.686C-17.502-5.128-16.586-7.173-14.938-8.732-13.29-10.292-11.233-11.072-8.769-11.072-7.021-11.072-5.451-10.619-4.058-9.715-2.662-8.81-1.585-7.551-.824-5.937H2.557C1.486-8.509-.018-10.481-1.954-11.859-3.892-13.235-6.135-13.924-8.684-13.924-12.064-13.924-14.924-12.72-17.262-10.311-19.601-7.902-20.77-5.008-20.77-1.627-20.77 1.908-19.625 4.831-17.337 7.142-15.047 9.452-12.121 10.606-8.558 10.606-5.063 10.606-2.215 9.404-.011 7.001 2.194 4.597 3.296 1.47 3.296-2.38Z" fill="#ffffff"/>
<path transform="matrix(1,0,0,-1,134.9541,118.017299)" d="M0 0V-3.196H1.216C1.892-3.196 2.39-3.068 2.714-2.812 3.036-2.554 3.197-2.156 3.197-1.619 3.197-1.059 3.035-.647 2.71-.39 2.386-.13 1.864 0 1.146 0ZM-.823 .823H.957C1.468 .823 1.876 .797 2.184 .743 2.49 .688 2.746 .603 2.95 .484 3.318 .261 3.601-.028 3.799-.383 3.997-.738 4.095-1.139 4.095-1.584 4.095-2.006 4.006-2.397 3.828-2.756 3.649-3.115 3.4-3.4 3.082-3.611 2.859-3.762 2.593-3.869 2.284-3.937 1.975-4.004 1.581-4.037 1.1-4.037H0V-7.562H-.823Z" fill="#ffffff"/>
<path transform="matrix(1,0,0,-1,143.2344,118.017299)" d="M0 0V-7.562H-.812V.823H1.439C1.935 .823 2.333 .786 2.635 .711 2.937 .636 3.209 .513 3.455 .34 3.79 .104 4.053-.208 4.248-.6 4.442-.991 4.538-1.405 4.538-1.844 4.538-2.492 4.345-3.051 3.96-3.519 3.574-3.988 3.091-4.243 2.511-4.285L4.538-7.562H3.559L1.071-3.519H1.866C2.396-3.519 2.826-3.363 3.159-3.053 3.491-2.742 3.657-2.342 3.657-1.854 3.657-1.559 3.606-1.29 3.504-1.049 3.402-.807 3.252-.596 3.052-.415 2.887-.266 2.688-.158 2.457-.096 2.224-.031 1.81 0 1.215 0Z" fill="#ffffff"/>
<path transform="matrix(1,0,0,-1,151.895,121.3464)" d="M0 0C0-1.021 .332-1.878 .996-2.568 1.661-3.26 2.479-3.605 3.456-3.605 4.408-3.605 5.212-3.256 5.868-2.557 6.525-1.858 6.854-.998 6.854 .023 6.854 .976 6.516 1.795 5.84 2.485 5.164 3.175 4.35 3.52 3.398 3.52 3.01 3.52 2.637 3.453 2.278 3.32 1.919 3.188 1.587 2.993 1.284 2.736 .885 2.397 .571 1.985 .342 1.497 .113 1.01 0 .511 0 0M-.864 .012C-.864 .596-.751 1.152-.527 1.682-.302 2.211 .023 2.686 .449 3.104 .86 3.508 1.312 3.811 1.806 4.015 2.299 4.218 2.833 4.319 3.41 4.319 3.997 4.319 4.542 4.217 5.042 4.012 5.543 3.806 6.001 3.5 6.416 3.093 6.842 2.674 7.163 2.206 7.378 1.687 7.593 1.169 7.7 .61 7.7 .012 7.7-.583 7.607-1.13 7.424-1.627 7.239-2.124 6.963-2.577 6.595-2.983 6.168-3.452 5.687-3.805 5.149-4.043 4.61-4.281 4.028-4.4 3.398-4.4 2.192-4.4 1.18-3.978 .362-3.13-.456-2.284-.864-1.236-.864 .012" fill="#ffffff"/>
<path transform="matrix(1,0,0,-1,166.0259,121.559299)" d="M0 0H5.212C5.143-1.222 4.703-2.225 3.894-3.01 3.083-3.795 2.089-4.187 .91-4.187-.299-4.187-1.312-3.766-2.128-2.92-2.945-2.075-3.352-1.027-3.352 .225-3.352 .812-3.241 1.368-3.018 1.895-2.795 2.421-2.469 2.895-2.039 3.317-1.624 3.728-1.166 4.033-.663 4.232-.16 4.433 .399 4.532 1.013 4.532 1.828 4.532 2.558 4.336 3.205 3.942 3.852 3.548 4.371 2.986 4.763 2.257H3.75C3.354 2.76 2.931 3.132 2.479 3.372 2.028 3.611 1.524 3.732 .968 3.732 .003 3.732-.812 3.388-1.477 2.698-2.144 2.008-2.477 1.18-2.477 .213-2.477-.816-2.145-1.674-1.48-2.362-.816-3.05 .003-3.393 .979-3.393 1.747-3.393 2.436-3.147 3.043-2.656 3.652-2.164 4.049-1.526 4.232-.743H0Z" fill="#ffffff"/>
<path transform="matrix(1,0,0,-1,175.5732,120.954799)" d="M0 0H3.524V-.829H0V-3.813H3.524V-4.625H-.829V3.761H3.524V2.938H0Z" fill="#ffffff"/>
<path transform="matrix(1,0,0,-1,184.8145,125.579799)" d="M0 0H-.824V7.562H-2.5V8.386H1.676V7.562H0Z" fill="#ffffff"/>
<path transform="matrix(1,0,0,-1,191.4927,125.579799)" d="M0 0H-.824V7.562H-2.5V8.386H1.677V7.562H0Z" fill="#ffffff"/>
<path transform="matrix(1,0,0,-1,200.2046,122.19309)" d="M0 0-1.589 4.21-3.155 0ZM-4.446-3.387H-5.316L-2.062 4.999H-1.071L2.172-3.387H1.291L.289-.755H-3.444Z" fill="#ffffff"/>
<path transform="matrix(1,0,0,-1,208.7266,118.017299)" d="M0 0H-3.68V.823H.957V.034L-2.972-6.75H1.036V-7.562H-3.917V-6.773Z" fill="#ffffff"/>
<path transform="matrix(1,0,0,-1,0,141.732)" d="M213.937 16.152H213.114V24.538H213.937Z" fill="#ffffff"/>
<path transform="matrix(1,0,0,-1,218.2949,121.3464)" d="M0 0C0-1.021 .332-1.878 .996-2.568 1.661-3.26 2.479-3.605 3.456-3.605 4.408-3.605 5.212-3.256 5.868-2.557 6.525-1.858 6.854-.998 6.854 .023 6.854 .976 6.516 1.795 5.84 2.485 5.164 3.175 4.351 3.52 3.398 3.52 3.01 3.52 2.637 3.453 2.278 3.32 1.919 3.188 1.588 2.993 1.284 2.736 .885 2.397 .571 1.985 .343 1.497 .113 1.01 0 .511 0 0M-.863 .012C-.863 .596-.751 1.152-.526 1.682-.302 2.211 .023 2.686 .449 3.104 .86 3.508 1.312 3.811 1.806 4.015 2.299 4.218 2.834 4.319 3.41 4.319 3.997 4.319 4.541 4.217 5.042 4.012 5.543 3.806 6.002 3.5 6.416 3.093 6.843 2.674 7.163 2.206 7.378 1.687 7.593 1.169 7.7 .61 7.7 .012 7.7-.583 7.607-1.13 7.424-1.627 7.239-2.124 6.963-2.577 6.595-2.983 6.169-3.452 5.687-3.805 5.149-4.043 4.61-4.281 4.028-4.4 3.398-4.4 2.192-4.4 1.18-3.978 .362-3.13-.455-2.284-.863-1.236-.863 .012" fill="#ffffff"/>
<path transform="matrix(1,0,0,-1,235.0693,124.5769)" d="M0 0-.098 7.383H.72V-1.003H-.271L-4.872 6.393-4.781-1.003H-5.592V7.383H-4.603Z" fill="#ffffff"/>
<path transform="matrix(1,0,0,-1,240.5566,120.954799)" d="M0 0H3.523V-.829H0V-3.813H3.523V-4.625H-.83V3.761H3.523V2.938H0Z" fill="#ffffff"/>
<path transform="matrix(1,0,0,-1,254.5244,120.954799)" d="M0 0H3.523V-.829H0V-3.813H3.523V-4.625H-.829V3.761H3.523V2.938H0Z" fill="#ffffff"/>
<path transform="matrix(1,0,0,-1,262.7861,117.9939)" d="M0 0V-6.797H1.711C2.778-6.797 3.6-6.497 4.176-5.897 4.752-5.3 5.039-4.451 5.039-3.353 5.039-2.803 4.942-2.297 4.745-1.832 4.551-1.367 4.271-.978 3.904-.663 3.632-.425 3.327-.256 2.989-.153 2.651-.052 2.16 0 1.515 0ZM-.812 .8H1.572C2.229 .8 2.78 .734 3.228 .604 3.676 .473 4.069 .264 4.412-.023 4.892-.427 5.265-.92 5.528-1.504 5.794-2.087 5.927-2.712 5.927-3.375 5.927-4.116 5.78-4.791 5.489-5.4 5.197-6.009 4.784-6.505 4.25-6.889 3.897-7.139 3.516-7.317 3.104-7.424 2.693-7.532 2.061-7.586 1.204-7.586H-.812Z" fill="#ffffff"/>
<path transform="matrix(1,0,0,-1,278.3271,121.3464)" d="M0 0C0-1.021 .332-1.878 .996-2.568 1.661-3.26 2.479-3.605 3.456-3.605 4.408-3.605 5.212-3.256 5.868-2.557 6.525-1.858 6.854-.998 6.854 .023 6.854 .976 6.516 1.795 5.84 2.485 5.164 3.175 4.351 3.52 3.398 3.52 3.01 3.52 2.638 3.453 2.278 3.32 1.919 3.188 1.588 2.993 1.284 2.736 .885 2.397 .571 1.985 .343 1.497 .113 1.01 0 .511 0 0M-.863 .012C-.863 .596-.751 1.152-.526 1.682-.302 2.211 .023 2.686 .449 3.104 .86 3.508 1.312 3.811 1.806 4.015 2.299 4.218 2.834 4.319 3.41 4.319 3.997 4.319 4.541 4.217 5.042 4.012 5.543 3.806 6.002 3.5 6.416 3.093 6.843 2.674 7.163 2.206 7.378 1.687 7.593 1.169 7.7 .61 7.7 .012 7.7-.583 7.607-1.13 7.424-1.627 7.239-2.124 6.963-2.577 6.595-2.983 6.169-3.452 5.687-3.805 5.149-4.043 4.61-4.281 4.028-4.4 3.398-4.4 2.192-4.4 1.18-3.978 .362-3.13-.455-2.284-.863-1.236-.863 .012" fill="#ffffff"/>
<path transform="matrix(1,0,0,-1,290.2627,118.017299)" d="M0 0V-3.196H1.216C1.892-3.196 2.391-3.068 2.714-2.812 3.036-2.554 3.197-2.156 3.197-1.619 3.197-1.059 3.035-.647 2.711-.39 2.387-.13 1.865 0 1.146 0ZM-.822 .823H.957C1.468 .823 1.876 .797 2.184 .743 2.49 .688 2.746 .603 2.95 .484 3.318 .261 3.601-.028 3.8-.383 3.997-.738 4.096-1.139 4.096-1.584 4.096-2.006 4.006-2.397 3.828-2.756 3.649-3.115 3.4-3.4 3.082-3.611 2.86-3.762 2.594-3.869 2.284-3.937 1.975-4.004 1.581-4.037 1.101-4.037H0V-7.562H-.822Z" fill="#ffffff"/>
<path transform="matrix(1,0,0,-1,298.6768,120.954799)" d="M0 0H3.524V-.829H0V-3.813H3.524V-4.625H-.829V3.761H3.524V2.938H0Z" fill="#ffffff"/>
<path transform="matrix(1,0,0,-1,306.8242,118.017299)" d="M0 0V-7.562H-.812V.823H1.439C1.935 .823 2.332 .786 2.635 .711 2.936 .636 3.209 .513 3.454 .34 3.789 .104 4.053-.208 4.247-.6 4.441-.991 4.538-1.405 4.538-1.844 4.538-2.492 4.345-3.051 3.959-3.519 3.573-3.988 3.09-4.243 2.511-4.285L4.538-7.562H3.559L1.07-3.519H1.865C2.396-3.519 2.826-3.363 3.158-3.053 3.49-2.742 3.656-2.342 3.656-1.854 3.656-1.559 3.605-1.29 3.504-1.049 3.402-.807 3.252-.596 3.052-.415 2.887-.266 2.688-.158 2.456-.096 2.224-.031 1.81 0 1.214 0Z" fill="#ffffff"/>
<path transform="matrix(1,0,0,-1,315.875,120.954799)" d="M0 0H3.524V-.829H0V-3.813H3.524V-4.625H-.829V3.761H3.524V2.938H0Z" fill="#ffffff"/>
<path transform="matrix(1,0,0,-1,329.8428,120.954799)" d="M0 0H3.524V-.829H0V-3.813H3.524V-4.625H-.829V3.761H3.524V2.938H0Z" fill="#ffffff"/>
<path transform="matrix(1,0,0,-1,338.1055,117.9939)" d="M0 0V-6.797H1.711C2.779-6.797 3.6-6.497 4.176-5.897 4.752-5.3 5.04-4.451 5.04-3.353 5.04-2.803 4.942-2.297 4.746-1.832 4.551-1.367 4.271-.978 3.905-.663 3.632-.425 3.328-.256 2.99-.153 2.651-.052 2.16 0 1.515 0ZM-.812 .8H1.572C2.229 .8 2.781 .734 3.229 .604 3.677 .473 4.07 .264 4.412-.023 4.892-.427 5.265-.92 5.529-1.504 5.795-2.087 5.927-2.712 5.927-3.375 5.927-4.116 5.781-4.791 5.489-5.4 5.197-6.009 4.785-6.505 4.251-6.889 3.897-7.139 3.516-7.317 3.105-7.424 2.693-7.532 2.061-7.586 1.204-7.586H-.812Z" fill="#ffffff"/>
<path transform="matrix(1,0,0,-1,0,141.732)" d="M348.332 16.152H347.51V24.538H348.332Z" fill="#ffffff"/>
<path transform="matrix(1,0,0,-1,356.0303,125.579799)" d="M0 0H-3.778V8.386H-2.949V.812H0Z" fill="#ffffff"/>
<path transform="matrix(1,0,0,-1,0,141.732)" d="M360.284 16.152H359.461V24.538H360.284Z" fill="#ffffff"/>
</g>
</g>
</svg>
